<?xml version="1.0" encoding="utf-8"?>
<!-- Generator: Adobe Illustrator 16.0.0, SVG Export Plug-In . SVG Version: 6.00 Build 0)  -->
<!DOCTYPE svg PUBLIC "-//W3C//DTD SVG 1.1//EN" "http://www.w3.org/Graphics/SVG/1.1/DTD/svg11.dtd">
<svg version="1.1"
	 id="svg2" xmlns:dc="http://purl.org/dc/elements/1.1/" xmlns:cc="http://creativecommons.org/ns#" xmlns:rdf="http://www.w3.org/1999/02/22-rdf-syntax-ns#" xmlns:svg="http://www.w3.org/2000/svg" xmlns:sodipodi="http://sodipodi.sourceforge.net/DTD/sodipodi-0.dtd" xmlns:inkscape="http://www.inkscape.org/namespaces/inkscape" inkscape:export-filename="./sprite.png" inkscape:export-xdpi="90" inkscape:export-ydpi="90" inkscape:version="0.48.2 r9819" sodipodi:docname="sprite.svg"
	 xmlns="http://www.w3.org/2000/svg" xmlns:xlink="http://www.w3.org/1999/xlink" x="0px" y="0px" width="1160px" height="240px"
	 viewBox="0 0 1160 240" enable-background="new 0 0 1160 240" xml:space="preserve">
<circle fill="#FFFFFF" cx="59.974" cy="180" r="59.974"/>
<sodipodi:namedview  id="base" pagecolor="#ffffff" bordercolor="#666666" borderopacity="1.0" inkscape:zoom="1" inkscape:cx="555.61308" inkscape:cy="133.43686" showgrid="false" showguides="true" inkscape:pageshadow="2" inkscape:guide-bbox="true" inkscape:document-units="px" inkscape:current-layer="layer5" inkscape:pageopacity="0.0">
	<inkscape:grid  empspacing="5" visible="true" enabled="true" id="grid2985" type="xygrid" snapvisiblegridlinesonly="true">
		</inkscape:grid>
</sodipodi:namedview>
<g id="layer2" transform="translate(0,140)" inkscape:label="BG" inkscape:groupmode="layer" sodipodi:insensitive="true">
	<path id="path4202" sodipodi:ry="65" sodipodi:rx="65" sodipodi:cy="50" sodipodi:cx="50" sodipodi:type="arc" fill="#222222" d="
		M770,40c0,33.137-26.863,60-60,60s-60-26.863-60-60s26.863-60,60-60S770,6.863,770,40z"/>
	<path id="path4199" sodipodi:ry="40" sodipodi:rx="40" sodipodi:cy="60" sodipodi:cx="190" sodipodi:type="arc" fill="#FF9270" d="
		M620-80c0,22.091-17.908,40-40,40s-40-17.909-40-40s17.908-40,40-40S620-102.091,620-80z"/>
	<path id="path4172" sodipodi:ry="65" sodipodi:rx="65" sodipodi:cy="50" sodipodi:cx="50" sodipodi:type="arc" fill="#222222" d="
		M640,40c0,33.137-26.863,60-60,60s-60-26.863-60-60s26.863-60,60-60S640,6.863,640,40z"/>
	<path id="path4045" sodipodi:ry="65" sodipodi:rx="65" sodipodi:cy="50" sodipodi:cx="50" sodipodi:type="arc" fill="#222222" d="
		M250,40c0,33.137-26.863,60-60,60s-60-26.863-60-60s26.863-60,60-60S250,6.863,250,40z"/>
	<path id="path4135" sodipodi:ry="40" sodipodi:rx="40" sodipodi:cy="60" sodipodi:cx="190" sodipodi:type="arc" fill="#FF9270" d="
		M230-80c0,22.091-17.909,40-40,40s-40-17.909-40-40s17.909-40,40-40S230-102.091,230-80z"/>
	<path id="path4137" sodipodi:ry="65" sodipodi:rx="65" sodipodi:cy="50" sodipodi:cx="50" sodipodi:type="arc" fill="#222222" d="
		M380,40c0,33.137-26.863,60-60,60s-60-26.863-60-60s26.863-60,60-60S380,6.863,380,40z"/>
	<path id="path4144" sodipodi:ry="40" sodipodi:rx="40" sodipodi:cy="60" sodipodi:cx="190" sodipodi:type="arc" fill="#FF9270" d="
		M360-80c0,22.091-17.909,40-40,40s-40-17.909-40-40s17.909-40,40-40S360-102.091,360-80z"/>
	<path id="path4153" sodipodi:ry="65" sodipodi:rx="65" sodipodi:cy="50" sodipodi:cx="50" sodipodi:type="arc" fill="#222222" d="
		M510,40c0,33.137-26.863,60-60,60s-60-26.863-60-60s26.863-60,60-60S510,6.863,510,40z"/>
	<path id="path4163" sodipodi:ry="40" sodipodi:rx="40" sodipodi:cy="60" sodipodi:cx="190" sodipodi:type="arc" fill="#FF9270" d="
		M490-80c0,22.091-17.908,40-40,40s-40-17.909-40-40s17.908-40,40-40S490-102.091,490-80z"/>
	<path id="path4299" sodipodi:ry="40" sodipodi:rx="40" sodipodi:cy="60" sodipodi:cx="190" sodipodi:type="arc" fill="#FF9270" d="
		M750-80c0,22.091-17.908,40-40,40s-40-17.909-40-40s17.908-40,40-40S750-102.091,750-80z"/>
	<path id="path4308" sodipodi:ry="65" sodipodi:rx="65" sodipodi:cy="50" sodipodi:cx="50" sodipodi:type="arc" fill="#222222" d="
		M900,40c0,33.137-26.863,60-60,60s-60-26.863-60-60s26.863-60,60-60S900,6.863,900,40z"/>
	<path id="path4310" sodipodi:ry="40" sodipodi:rx="40" sodipodi:cy="60" sodipodi:cx="190" sodipodi:type="arc" fill="#FF9270" d="
		M880-80c0,22.091-17.908,40-40,40s-40-17.909-40-40s17.908-40,40-40S880-102.091,880-80z"/>
	<path id="path4359" sodipodi:ry="65" sodipodi:rx="65" sodipodi:cy="50" sodipodi:cx="50" sodipodi:type="arc" fill="#222222" d="
		M1030,40c0,33.137-26.863,60-60,60s-60-26.863-60-60s26.863-60,60-60S1030,6.863,1030,40z"/>
	<path id="path4361" sodipodi:ry="40" sodipodi:rx="40" sodipodi:cy="60" sodipodi:cx="190" sodipodi:type="arc" fill="#FF9270" d="
		M1010-80c0,22.091-17.908,40-40,40s-40-17.909-40-40s17.908-40,40-40S1010-102.091,1010-80z"/>
	<path id="path4456" sodipodi:ry="65" sodipodi:rx="65" sodipodi:cy="50" sodipodi:cx="50" sodipodi:type="arc" fill="#222222" d="
		M1160,40c0,33.137-26.863,60-60,60c-33.138,0-60-26.863-60-60s26.862-60,60-60C1133.137-20,1160,6.863,1160,40z"/>
	<path id="path4489" sodipodi:ry="40" sodipodi:rx="40" sodipodi:cy="60" sodipodi:cx="190" sodipodi:type="arc" fill="#FF9270" d="
		M1140-80c0,22.091-17.908,40-40,40s-40-17.909-40-40s17.908-40,40-40S1140-102.091,1140-80z"/>
	<path fill="#333333" d="M57.684,86.992c0.184,0.02,0.368,0.039,0.551,0.058c0.1,1.073,0.149,2.152,0.31,3.216
		c0.235,1.537,0.995,1.953,2.3,1.188c1.216-0.715,2.383-1.534,3.497-2.4c1.626-1.266,2.633-3.209,1.355-5.353
		c-0.289-0.484-0.062-1.651,0.36-2.079c0.446-0.453,1.634-0.774,2.096-0.492c1.095,0.667,2.018,0.47,3.111,0.207
		c0.818-0.195,1.733-0.17,2.571-0.035c0.462,0.077,0.854,0.582,1.279,0.891c-0.099,0.194-0.197,0.387-0.296,0.58
		c-0.83-0.097-1.664-0.167-2.489-0.294c-1.222-0.189-2.429-0.414-2.402,1.456c0.002,0.137-0.159,0.367-0.288,0.403
		c-1.685,0.478-1.182,2.08-0.659,2.523c0.967,0.824,0.753,1.678,0.856,2.609c0.046,0.426,0.343,0.823,0.525,1.234
		c0.315-0.288,0.591-0.65,0.955-0.849c0.444-0.239,0.951-0.413,1.45-0.488c1.195-0.18,2.401-0.286,3.422-0.4
		c0.627,0.528,1.309,1.103,2.212,1.861c0.317-1.212,0.5-1.906,0.75-2.864c0.162,0.728,0.262,1.185,0.411,1.86
		c1.42-2.787,2.065,1.617,3.414-0.016c-0.625-2.053,1.482-1.822,2.466-2.681c0.434,1.778,1.358,1.081,2.024,0.537
		c0.764,0.271,1.334,0.474,1.905,0.677c-0.037-0.509-0.073-1.019-0.11-1.529c0.117-0.081,0.234-0.164,0.351-0.247
		c0.416,0.611,0.832,1.224,1.372,2.019c0.338-0.092,0.958-0.261,1.746-0.476c-0.249-0.672-0.633-1.198-0.576-1.675
		c0.105-0.877,0.469-1.725,0.725-2.586c0.659,0.267,1.478,0.372,1.94,0.834c0.757,0.758,1.283,1.747,2.016,2.795
		c15.274-12.479,23.349-28.489,23.108-48.247c-0.242-19.947-8.932-35.777-24.843-48.07c-1.163,1.625-2.157,3.058-3.203,4.452
		c-0.449,0.598-1.005,1.118-1.512,1.675c-0.442-0.537-0.878-1.078-1.333-1.604c-0.064-0.074-0.214-0.074-0.324-0.11
		c0.064,0.15,0.129,0.298,0.194,0.447c-0.964,0.444-1.927,0.89-2.891,1.333c-0.313-1.121-0.625-2.242-0.981-3.52
		c-0.968,0.605-1.944,1.035-2.684,1.722c-0.986,0.912-1.785,2.027-2.669,3.049c-1.222,1.413-0.8,2.527,0.35,3.843
		c0.532,0.61,0.477,1.854,0.403,2.79c-0.02,0.248-1.164,0.306-1.648,0.652c-0.492,0.353-0.879,0.909-1.184,1.45
		c-1.139,2.024-1.193,4.633-3.325,6.129c-0.184,0.129-0.424,0.395-0.401,0.567c0.346,2.69-0.952,5.675,1.564,8.012
		c0.487,0.452,0.573,1.602,0.436,2.354c-0.075,0.42-0.986,0.698-1.533,1.02c-0.637,0.374-1.279,0.739-1.935,1.08
		c-0.316,0.164-0.705,0.429-1,0.363c-2.536-0.557-3.808,0.854-4.359,2.98c-0.506,1.955-1.788,2.642-3.556,2.885
		c-0.793,0.109-1.596,0.183-2.373,0.363c-0.453,0.106-0.864,0.395-1.293,0.6c0.074,0.218,0.147,0.437,0.221,0.654
		c0.791-0.252,1.568-0.589,2.378-0.727c0.716-0.123,1.629-0.296,2.176,0.026c1.702,1.004,2.474,2.605,2.524,4.634
		c0.024,0.977,0.258,2.051,0.727,2.896c1.348,2.429,2.87,4.762,2.374,7.038c1.439,1.898,2.552,3.33,3.609,4.804
		c0.128,0.177,0.065,0.738-0.091,0.838c-1.376,0.881-0.464,1.887-0.283,2.906c0.138,0.773,0.33,1.923-0.079,2.34
		c-1.322,1.347-0.903,3.911-3.237,4.53c-0.22,0.059-0.312,0.873-0.338,1.345c-0.231,4.148-0.466,8.3-0.63,12.453
		c-0.068,1.722-0.904,2.409-2.652,2.34c-0.185-0.669-0.343-1.319-0.543-1.959c-0.414-1.327-0.757-2.682-1.292-3.958
		c-1.066-2.537-2.24-5.022-1.142-7.868c0.14-0.362,0.141-0.778,0.207-1.169c-0.147,0.096-0.294,0.191-0.441,0.287
		c-0.823-0.737-1.945-1.334-2.376-2.254c-0.352-0.752,0.162-1.886,0.213-2.854c0.03-0.553-0.097-1.116-0.153-1.674
		c-0.603,0.138-1.212,0.257-1.809,0.421c-0.843,0.231-1.676,0.499-2.793,0.833c0.932-2.998,0.932-2.998-0.831-5.424
		c-1.917-2.638-1.958-4.416-0.269-7.126c0.198-0.317,0.04-0.859,0.046-1.296c-0.483,0.027-1.092-0.123-1.426,0.114
		c-1.697,1.202-1.838,4.202-0.442,5.903c0.289,0.354,0.442,1.349,0.28,1.451c-0.741,0.465-1.599,0.786-2.455,0.991
		c-0.166,0.04-0.626-0.634-0.751-1.041c-0.386-1.254-0.617-2.557-1.014-3.808c-0.885-2.787-2.015-3.143-4.669-1.854
		c-0.646,0.312-1.917,0.228-2.375-0.217c-0.464-0.448-0.375-1.575-0.349-2.399c0.031-0.946,0.562-1.975,0.32-2.806
		c-0.27-0.924-1.165-1.664-1.636-2.284c0.488-1.192,1.154-2.251,1.339-3.389c0.406-2.506,0.629-5.047,0.798-7.583
		c0.055-0.817-0.119-1.751-0.49-2.479c-0.804-1.579-1.834-3.04-2.699-4.593c-0.239-0.427-0.482-1.169-0.281-1.475
		c0.964-1.463,0.954-2.948,0.635-4.589c-0.208-1.07-0.287-2.275-0.004-3.305c0.342-1.248,0.244-1.98-0.88-2.771
		c-1.067-0.749-1.74-0.369-2.642,0.175c-0.903,0.545-1.852,0.83-2.181-0.775c-0.081-0.396-0.808-0.719-1.295-0.957
		c-0.532-0.258-1.348-0.202-1.664-0.59c-2.108-2.585-6.179-4.287-4.177-8.824c0.068-0.154,0-0.366,0.01-0.551
		c0.119-2.188,0.248-4.377,0.357-6.567c0.031-0.621,0.005-1.246,0.005-2.111c-0.66,0.382-0.994,0.541-1.291,0.753
		C7.647,3.614-1.395,21.812,0.174,44.907c1.081,15.907,8.03,29.108,19.711,39.881c1.696,1.564,3.374,2.972,5.947,2.809
		c1.388-0.087,2.802,0.383,4.212,0.461c1.056,0.058,2.125-0.11,3.188-0.179c-0.129-1.319-0.221-2.645-0.411-3.954
		c-0.047-0.318-0.522-0.558-0.619-0.887c-0.149-0.501-0.139-1.05-0.196-1.576c0.197-0.085,0.395-0.172,0.594-0.256
		c-0.375-0.296-0.752-0.85-1.124-0.845c-2.524,0.028-2.179-1.71-2.143-3.29c0.029-1.37,1.001-1.708,1.849-1.12
		c1.513,1.048,2.633,0.779,4.075-1.129c0.517,2.076,0.889,3.571,1.28,5.142c1.173-0.06,1.997,0.74,1.21,1.706
		c-1.407,1.729-0.776,3.646-0.974,5.49c-0.142,1.327,0.452,1.9,1.739,2.026c2.758,0.267,5.509,0.59,8.261,0.91
		c1.56,0.18,3.116,0.398,4.688,0.602c0.203-1.348,0.362-2.407,0.542-3.601c0.739,0.276,1.463,0.385,1.962,0.778
		c0.49,0.387,1.163,1.188,1.041,1.593c-0.62,2.066,0.65,1.777,1.929,1.76C57.192,89.775,57.438,88.385,57.684,86.992z
		 M34.828,94.252c16.749,7.666,33.504,7.66,50.244,0C68.324,94.252,51.577,94.252,34.828,94.252z"/>
</g>
<g>
	
		<g id="layer1" transform="translate(0,-812.36218)" inkscape:label="Baker St" inkscape:groupmode="layer" sodipodi:insensitive="true">
		<rect x="159.847" y="852.362" fill="none" width="63.653" height="46.5"/>
		<text transform="matrix(1 0 0 1 174.4321 892.3817)" fill="#FFFFFF" font-family="'Stencil'" font-size="60">1</text>
	</g>
	
		<g id="layer1_1_" transform="translate(0,-812.36218)" inkscape:label="Baker St" inkscape:groupmode="layer" sodipodi:insensitive="true">
		<rect x="149.087" y="956.589" fill="none" width="83.827" height="83.25"/>
		<text transform="matrix(1 0 0 1 162.2651 1023.288)" fill="#FFFFFF" font-family="'Stencil'" font-size="100">1</text>
	</g>
</g>
<g>
	
		<g id="layer1_3_" transform="translate(0,-812.36218)" inkscape:label="Baker St" inkscape:groupmode="layer" sodipodi:insensitive="true">
		<rect x="288.847" y="852.362" fill="none" width="63.653" height="46.5"/>
		<text transform="matrix(1 0 0 1 303.4316 892.3817)" fill="#FFFFFF" font-family="'Stencil'" font-size="60">2</text>
	</g>
	
		<g id="layer1_2_" transform="translate(0,-812.36218)" inkscape:label="Baker St" inkscape:groupmode="layer" sodipodi:insensitive="true">
		<rect x="278.086" y="956.589" fill="none" width="83.827" height="83.25"/>
		<text transform="matrix(1 0 0 1 291.2646 1023.288)" fill="#FFFFFF" font-family="'Stencil'" font-size="100">2</text>
	</g>
</g>
<g>
	
		<g id="layer1_13_" transform="translate(0,-812.36218)" inkscape:label="Baker St" inkscape:groupmode="layer" sodipodi:insensitive="true">
		<rect x="938.847" y="852.362" fill="none" width="63.653" height="46.5"/>
		<text transform="matrix(1 0 0 1 953.4316 892.3817)" fill="#FFFFFF" font-family="'Stencil'" font-size="60">7</text>
	</g>
	
		<g id="layer1_12_" transform="translate(0,-812.36218)" inkscape:label="Baker St" inkscape:groupmode="layer" sodipodi:insensitive="true">
		<rect x="928.086" y="956.589" fill="none" width="83.828" height="83.25"/>
		<text transform="matrix(1 0 0 1 941.2646 1023.288)" fill="#FFFFFF" font-family="'Stencil'" font-size="100">7</text>
	</g>
</g>
<g>
	
		<g id="layer1_15_" transform="translate(0,-812.36218)" inkscape:label="Baker St" inkscape:groupmode="layer" sodipodi:insensitive="true">
		<rect x="1068.847" y="852.362" fill="none" width="63.653" height="46.5"/>
		<text transform="matrix(1 0 0 1 1083.4316 892.3817)" fill="#FFFFFF" font-family="'Stencil'" font-size="60">8</text>
	</g>
	
		<g id="layer1_14_" transform="translate(0,-812.36218)" inkscape:label="Baker St" inkscape:groupmode="layer" sodipodi:insensitive="true">
		<rect x="1058.086" y="956.589" fill="none" width="83.828" height="83.25"/>
		<text transform="matrix(1 0 0 1 1071.2646 1023.288)" fill="#FFFFFF" font-family="'Stencil'" font-size="100">8</text>
	</g>
</g>
<g>
	
		<g id="layer1_5_" transform="translate(0,-812.36218)" inkscape:label="Baker St" inkscape:groupmode="layer" sodipodi:insensitive="true">
		<rect x="418.847" y="852.362" fill="none" width="63.653" height="46.5"/>
		<text transform="matrix(1 0 0 1 433.4316 892.3817)" fill="#FFFFFF" font-family="'Stencil'" font-size="60">3</text>
	</g>
	
		<g id="layer1_4_" transform="translate(0,-812.36218)" inkscape:label="Baker St" inkscape:groupmode="layer" sodipodi:insensitive="true">
		<rect x="408.086" y="956.589" fill="none" width="83.827" height="83.25"/>
		<text transform="matrix(1 0 0 1 421.2646 1023.288)" fill="#FFFFFF" font-family="'Stencil'" font-size="100">3</text>
	</g>
</g>
<g>
	
		<g id="layer1_9_" transform="translate(0,-812.36218)" inkscape:label="Baker St" inkscape:groupmode="layer" sodipodi:insensitive="true">
		<rect x="678.847" y="852.362" fill="none" width="63.653" height="46.5"/>
		<text transform="matrix(1 0 0 1 693.4316 892.3817)" fill="#FFFFFF" font-family="'Stencil'" font-size="60">5</text>
	</g>
	
		<g id="layer1_8_" transform="translate(0,-812.36218)" inkscape:label="Baker St" inkscape:groupmode="layer" sodipodi:insensitive="true">
		<rect x="668.086" y="956.589" fill="none" width="83.828" height="83.25"/>
		<text transform="matrix(1 0 0 1 681.2646 1023.288)" fill="#FFFFFF" font-family="'Stencil'" font-size="100">5</text>
	</g>
</g>
<g>
	
		<g id="layer1_11_" transform="translate(0,-812.36218)" inkscape:label="Baker St" inkscape:groupmode="layer" sodipodi:insensitive="true">
		<rect x="808.847" y="852.362" fill="none" width="63.653" height="46.5"/>
		<text transform="matrix(1 0 0 1 823.4316 892.3817)" fill="#FFFFFF" font-family="'Stencil'" font-size="60">6</text>
	</g>
	
		<g id="layer1_10_" transform="translate(0,-812.36218)" inkscape:label="Baker St" inkscape:groupmode="layer" sodipodi:insensitive="true">
		<rect x="798.086" y="956.589" fill="none" width="83.828" height="83.25"/>
		<text transform="matrix(1 0 0 1 811.2646 1023.288)" fill="#FFFFFF" font-family="'Stencil'" font-size="100">6</text>
	</g>
</g>
<g>
	
		<g id="layer1_7_" transform="translate(0,-812.36218)" inkscape:label="Baker St" inkscape:groupmode="layer" sodipodi:insensitive="true">
		<rect x="548.847" y="852.362" fill="none" width="63.653" height="46.5"/>
		<text transform="matrix(1 0 0 1 561.4316 890.3817)" fill="#FFFFFF" font-family="'Stencil'" font-size="60">4</text>
	</g>
	
		<g id="layer1_6_" transform="translate(0,-812.36218)" inkscape:label="Baker St" inkscape:groupmode="layer" sodipodi:insensitive="true">
		<rect x="536.086" y="955.589" fill="none" width="83.828" height="83.25"/>
		<text transform="matrix(1 0 0 1 549.2646 1022.288)" fill="#FFFFFF" font-family="'Stencil'" font-size="100">4</text>
	</g>
</g>
</svg>
